<mxfile host="app.diagrams.net" agent="Mozilla/5.0 (Macintosh; Intel Mac OS X 10_15_7) AppleWebKit/605.1.15 (KHTML, like Gecko) Version/17.2.1 Safari/605.1.15" version="24.7.17">
  <diagram name="Page-1" id="gfK0nKtL_6R7GHh46m0v">
    <mxGraphModel dx="2943" dy="865" grid="1" gridSize="10" guides="1" tooltips="1" connect="1" arrows="1" fold="1" page="1" pageScale="1" pageWidth="827" pageHeight="1169" math="0" shadow="0">
      <root>
        <mxCell id="0" />
        <mxCell id="1" parent="0" />
        <mxCell id="C2c4a6FwvJSTEGgRbdgf-110" value="" style="edgeStyle=orthogonalEdgeStyle;rounded=0;orthogonalLoop=1;jettySize=auto;html=1;" edge="1" parent="1" source="C2c4a6FwvJSTEGgRbdgf-108" target="C2c4a6FwvJSTEGgRbdgf-109">
          <mxGeometry relative="1" as="geometry" />
        </mxCell>
        <mxCell id="C2c4a6FwvJSTEGgRbdgf-108" value="&lt;font style=&quot;font-size: 12px;&quot;&gt;Start&lt;/font&gt;" style="rounded=1;whiteSpace=wrap;html=1;" vertex="1" parent="1">
          <mxGeometry x="-1100" y="190" width="130" height="50" as="geometry" />
        </mxCell>
        <mxCell id="C2c4a6FwvJSTEGgRbdgf-112" value="" style="edgeStyle=orthogonalEdgeStyle;rounded=0;orthogonalLoop=1;jettySize=auto;html=1;" edge="1" parent="1" source="C2c4a6FwvJSTEGgRbdgf-109" target="C2c4a6FwvJSTEGgRbdgf-111">
          <mxGeometry relative="1" as="geometry" />
        </mxCell>
        <mxCell id="C2c4a6FwvJSTEGgRbdgf-109" value="&lt;span style=&quot;text-align: start;&quot;&gt;&lt;font style=&quot;font-size: 12px;&quot;&gt;Employee Creates Order&amp;nbsp;&lt;/font&gt;&lt;/span&gt;" style="rounded=0;whiteSpace=wrap;html=1;" vertex="1" parent="1">
          <mxGeometry x="-1107.49" y="270" width="145.63" height="50" as="geometry" />
        </mxCell>
        <mxCell id="C2c4a6FwvJSTEGgRbdgf-114" value="" style="edgeStyle=orthogonalEdgeStyle;rounded=0;orthogonalLoop=1;jettySize=auto;html=1;" edge="1" parent="1" source="C2c4a6FwvJSTEGgRbdgf-111" target="C2c4a6FwvJSTEGgRbdgf-113">
          <mxGeometry relative="1" as="geometry" />
        </mxCell>
        <mxCell id="C2c4a6FwvJSTEGgRbdgf-111" value="&lt;span style=&quot;text-align: start;&quot;&gt;&lt;font style=&quot;font-size: 12px;&quot;&gt;Customer Info,&amp;nbsp;&lt;/font&gt;&lt;/span&gt;&lt;div&gt;&lt;span style=&quot;text-align: start;&quot;&gt;&lt;font style=&quot;font-size: 12px;&quot;&gt;Items Selected/Removed&lt;/font&gt;&lt;/span&gt;&lt;/div&gt;" style="shape=parallelogram;perimeter=parallelogramPerimeter;whiteSpace=wrap;html=1;fixedSize=1;" vertex="1" parent="1">
          <mxGeometry x="-1123.12" y="360" width="176.25" height="60" as="geometry" />
        </mxCell>
        <mxCell id="C2c4a6FwvJSTEGgRbdgf-116" value="" style="edgeStyle=orthogonalEdgeStyle;rounded=0;orthogonalLoop=1;jettySize=auto;html=1;" edge="1" parent="1" source="C2c4a6FwvJSTEGgRbdgf-113" target="C2c4a6FwvJSTEGgRbdgf-115">
          <mxGeometry relative="1" as="geometry" />
        </mxCell>
        <mxCell id="C2c4a6FwvJSTEGgRbdgf-113" value="Payment&amp;nbsp;" style="rounded=0;whiteSpace=wrap;html=1;" vertex="1" parent="1">
          <mxGeometry x="-1107.49" y="454" width="144.99" height="38" as="geometry" />
        </mxCell>
        <mxCell id="C2c4a6FwvJSTEGgRbdgf-118" value="" style="edgeStyle=orthogonalEdgeStyle;rounded=0;orthogonalLoop=1;jettySize=auto;html=1;" edge="1" parent="1" source="C2c4a6FwvJSTEGgRbdgf-115" target="C2c4a6FwvJSTEGgRbdgf-117">
          <mxGeometry relative="1" as="geometry" />
        </mxCell>
        <mxCell id="C2c4a6FwvJSTEGgRbdgf-115" value="&lt;span style=&quot;caret-color: rgb(0, 0, 0); color: rgb(0, 0, 0); font-family: Helvetica; font-style: normal; font-variant-caps: normal; font-weight: 400; letter-spacing: normal; text-align: start; text-indent: 0px; text-transform: none; white-space: normal; word-spacing: 0px; -webkit-text-stroke-width: 0px; background-color: rgb(251, 251, 251); text-decoration: none; float: none; display: inline !important;&quot;&gt;&lt;font style=&quot;font-size: 12px;&quot;&gt;Order Created&lt;/font&gt;&lt;/span&gt;" style="shape=parallelogram;perimeter=parallelogramPerimeter;whiteSpace=wrap;html=1;fixedSize=1;" vertex="1" parent="1">
          <mxGeometry x="-1116.56" y="525" width="163.12" height="60" as="geometry" />
        </mxCell>
        <mxCell id="C2c4a6FwvJSTEGgRbdgf-120" value="" style="edgeStyle=orthogonalEdgeStyle;rounded=0;orthogonalLoop=1;jettySize=auto;html=1;" edge="1" parent="1" source="C2c4a6FwvJSTEGgRbdgf-117" target="C2c4a6FwvJSTEGgRbdgf-119">
          <mxGeometry relative="1" as="geometry" />
        </mxCell>
        <mxCell id="C2c4a6FwvJSTEGgRbdgf-117" value="&lt;span style=&quot;font-style: normal; font-variant-caps: normal; letter-spacing: normal; orphans: auto; text-align: start; text-indent: 0px; text-transform: none; white-space: normal; widows: auto; word-spacing: 0px; -webkit-text-stroke-width: 0px; text-decoration: none; caret-color: rgb(0, 0, 0); color: rgb(0, 0, 0);&quot;&gt;Receipt Generated&lt;/span&gt;" style="whiteSpace=wrap;html=1;" vertex="1" parent="1">
          <mxGeometry x="-1094.68" y="620" width="120" height="60" as="geometry" />
        </mxCell>
        <mxCell id="C2c4a6FwvJSTEGgRbdgf-122" value="" style="edgeStyle=orthogonalEdgeStyle;rounded=0;orthogonalLoop=1;jettySize=auto;html=1;" edge="1" parent="1" source="C2c4a6FwvJSTEGgRbdgf-119" target="C2c4a6FwvJSTEGgRbdgf-121">
          <mxGeometry relative="1" as="geometry" />
        </mxCell>
        <mxCell id="C2c4a6FwvJSTEGgRbdgf-125" value="" style="edgeStyle=orthogonalEdgeStyle;rounded=0;orthogonalLoop=1;jettySize=auto;html=1;" edge="1" parent="1" source="C2c4a6FwvJSTEGgRbdgf-119" target="C2c4a6FwvJSTEGgRbdgf-124">
          <mxGeometry relative="1" as="geometry" />
        </mxCell>
        <mxCell id="C2c4a6FwvJSTEGgRbdgf-119" value="&lt;span style=&quot;text-align: start;&quot;&gt;&lt;font style=&quot;font-size: 12px;&quot;&gt;Is a refund requested?&lt;/font&gt;&lt;/span&gt;" style="rhombus;whiteSpace=wrap;html=1;" vertex="1" parent="1">
          <mxGeometry x="-1074.68" y="730" width="80" height="80" as="geometry" />
        </mxCell>
        <mxCell id="C2c4a6FwvJSTEGgRbdgf-121" value="End" style="rounded=1;whiteSpace=wrap;html=1;" vertex="1" parent="1">
          <mxGeometry x="-1095" y="860" width="120" height="60" as="geometry" />
        </mxCell>
        <mxCell id="C2c4a6FwvJSTEGgRbdgf-123" value="No" style="text;html=1;align=center;verticalAlign=middle;resizable=0;points=[];autosize=1;strokeColor=none;fillColor=none;" vertex="1" parent="1">
          <mxGeometry x="-1034.99" y="800" width="40" height="30" as="geometry" />
        </mxCell>
        <mxCell id="C2c4a6FwvJSTEGgRbdgf-127" style="edgeStyle=orthogonalEdgeStyle;rounded=0;orthogonalLoop=1;jettySize=auto;html=1;entryX=1;entryY=0.5;entryDx=0;entryDy=0;" edge="1" parent="1" source="C2c4a6FwvJSTEGgRbdgf-124" target="C2c4a6FwvJSTEGgRbdgf-121">
          <mxGeometry relative="1" as="geometry">
            <Array as="points">
              <mxPoint x="-870" y="890" />
            </Array>
          </mxGeometry>
        </mxCell>
        <mxCell id="C2c4a6FwvJSTEGgRbdgf-124" value="&lt;span style=&quot;text-align: start;&quot;&gt;&lt;font style=&quot;font-size: 12px;&quot;&gt;Process refund&lt;/font&gt;&lt;/span&gt;" style="whiteSpace=wrap;html=1;" vertex="1" parent="1">
          <mxGeometry x="-930" y="740" width="120" height="60" as="geometry" />
        </mxCell>
        <mxCell id="C2c4a6FwvJSTEGgRbdgf-126" value="Yes" style="text;html=1;align=center;verticalAlign=middle;resizable=0;points=[];autosize=1;strokeColor=none;fillColor=none;" vertex="1" parent="1">
          <mxGeometry x="-1010" y="740" width="40" height="30" as="geometry" />
        </mxCell>
      </root>
    </mxGraphModel>
  </diagram>
</mxfile>
